# xmcd
#
# Track frame offsets:
# 150
# 15298
# 31120
# 40321
# 55631
# 70699
# 83191
# 102176
# 117746
# 132168
# 145920
# 160036
# 175035
# 189794
# 205683
# 216013
# 231442
# 245534
#
# Disc length: 3511 seconds
#
#
# Revision: 0
# Processed by: cddbd v1.5.2PL0 Copyright (c) Steve Scherf et al.
# Submitted via: FreeRIP 2.945 
#
DISCID=e70db512
DTITLE=Country and Trucker - Hits
DYEAR=1900
DGENRE=Country
TTITLE0=Nancy Wood               - Asphalt Cowboy
TTITLE1=Sammy's Saloon           - Mich ruft die Autobahn
TTITLE2=Nashville Pickers          - Kentucky Buggy
TTITLE3=West Forest Country Boys - Ich wollte auf 'nen echten Zug
TTITLE4=Ulla Norden                       - Du nimmst mich wie ich bin
TTITLE5=Jonny Hill                           - 500 Meilen von zu Haus
TTITLE6=Gunter Gabriel                   - Er ist ein KLerl (30 - Tonner - Diesel - Song)
TTITLE7=Graham Boney                  - Ich hab' noch viel vor in meinem Leben
TTITLE8=Eddie Toledo                    - Ich trinke keinen Tropfen mehr
TTITLE9=Mel Jersey                        - Liebe ist...
TTITLE10=Tennessee                       - Mein Pferd Gerd
TTITLE11=Holger Stern                     - Bis ans Ende der Welt
TTITLE12=Peter Hinnen                    - Ein richtiger Cowboy
TTITLE13=Sasja Velt                         - Ich kann nicht lachen , wenn du traurig bist
TTITLE14=Peter Held                        - Die schönste Frau von Texas
TTITLE15=Roxy Rose                       - Lass mich damit bloss in Ruhe
TTITLE16=Jan Hayston                     - Unter uns gibt's doch noch Engel
TTITLE17=Anne Karin                        - Zum ersten mal in meinem Leben
EXTD=
EXTT0=
EXTT1=
EXTT2=
EXTT3=
EXTT4=
EXTT5=
EXTT6=
EXTT7=
EXTT8=
EXTT9=
EXTT10=
EXTT11=
EXTT12=
EXTT13=
EXTT14=
EXTT15=
EXTT16=
EXTT17=
PLAYORDER=
